<svg width="1221" height="1221" viewBox="0 0 1221 1221" fill="none" xmlns="http://www.w3.org/2000/svg">
<path d="M610.5 0L1139.21 305.25V915.75L610.5 1221L81.7915 915.75V305.25L610.5 0Z" fill="#F7F7F7"/>
<path d="M635 379V389.5C641.4 390.7 647.6 392.2 653.2 393.7C666 397.1 673.6 410.3 670.2 423.1C666.8 435.9 653.6 443.5 640.8 440.1C629.9 437.2 619.7 435.2 610.6 435.1C603.3 435 595.9 436.8 591.2 439.5C589.1 440.8 588.1 441.9 587.7 442.5C587.4 443 587 443.7 587 445.3C587 445.6 587 445.8 587 445.9C587.2 446.1 587.9 447.1 590.3 448.5C596.1 452 604.7 454.7 617.7 458.6L618.6 458.9C629.7 462.2 644.5 466.7 656.5 474.2C670.2 482.8 682.6 497.1 682.9 519.1C683.2 541.6 671.5 558 656.2 567.6C649.5 571.7 642.3 574.6 634.9 576.4V587C634.9 600.3 624.2 611 610.9 611C597.6 611 586.9 600.3 586.9 587V575.6C577.4 573.3 568.7 570.3 561.3 567.8C559.2 567.1 557.2 566.4 555.3 565.8C542.7 561.6 535.9 548 540.1 535.4C544.3 522.8 557.9 516 570.5 520.2C573.1 521.1 575.5 521.9 577.8 522.7C591.4 527.3 601.2 530.6 611.7 531C619.7 531.3 626.8 529.4 630.9 526.9C632.8 525.7 633.7 524.7 634.1 524C634.5 523.4 635 522.2 634.9 519.9V519.7C634.9 518.7 634.9 517.6 630.9 515.1C625.2 511.5 616.6 508.7 603.8 504.8L601.9 504.2C591.1 501 576.9 496.7 565.5 489.8C552 481.7 539 467.8 538.9 445.7C538.8 422.8 551.8 407.1 566.6 398.3C573 394.5 579.9 391.9 586.8 390.1V379C586.8 365.7 597.5 355 610.8 355C624.1 355 634.8 365.7 634.8 379H635ZM891.2 691.3C904.3 709.1 900.5 734.1 882.7 747.2L756.1 840.5C732.7 857.7 704.5 867 675.4 867H515H355C337.3 867 323 852.7 323 835V771C323 753.3 337.3 739 355 739H391.8L436.7 703C459.4 684.8 487.6 675 516.7 675H595H611H675C692.7 675 707 689.3 707 707C707 724.7 692.7 739 675 739H611H595C586.2 739 579 746.2 579 755C579 763.8 586.2 771 595 771H715.6L835.3 682.8C853.1 669.7 878.1 673.5 891.2 691.3ZM516.6 739H515.7C516 739 516.3 739 516.6 739Z" fill="#007DFE"/>
</svg>
